<?xml version="1.0" encoding="UTF-8"?>
<svg version="1.1" viewBox="0 0 395 616" xmlns="http://www.w3.org/2000/svg">
 <path d="m176.97 153.51c-0.35514 2.5619-0.11233 5.3689-0.77702 7.8739-1.2051 2.9981-4.1028 4.6786-5.8811 7.3638-0.79319 2.216 0.2125 5.5836-0.32158 7.8715-0.6617 2.9181-0.23523 5.9067-0.19809 8.8597-0.0576 1.3104 0.70446 2.3978 1.1794 3.5602 5.1 0.34311 10.203 1.162 15.322 0.72052 1.4404-0.13501 3.2741-1.4978 4.3162-2.3847 2.1931-2.7749 2.1411-6.7665 3.9148-9.8006 0.83445-1.4361 1.3942-2.9804 1.7025-4.6075 0.67772-2.1861 1.2489-4.4805 0.78825-6.7742-0.44428-4.9242-0.85887-9.867-1.9346-14.703-0.46748-2.8486-0.67407-5.7307-1.0388-8.5926-5.6908 3.5375-11.382 7.0751-17.072 10.613z" fill="#c5784b"/>
 <path d="m176.44 93.756c-3.5707-0.20275-7.4344-0.65787-10.51 1.5408-3.8696 1.4126-6.3404 5.2372-6.833 9.2267-1.0199 4.7718-1.8801 9.6725-1.5023 14.525 0.3379 4.3396 5.9701 8.0898 3.3377 12.624-0.99992 3.9054 0.82533 6.3779 2.9192 9.1515 3.6273 4.6556 5.603 10.142 10.474 12.63 3.4588 1.7667 8.3398 1.8143 11.626 0.76836 3.32-1.0152 5.2845-4.1246 7.8812-6.2268 1.6877-1.6799 1.904-2.9886 3.9675-5.1414 0.98192-1.98 2.5614-3.9696 3.7019-5.8763 2.0746 2.2708 5.0994 0.79776 6.2057-1.7684 1.1692-2.4286 1.9642-5.0333 2.859-7.5634-7e-3 -2.0258 0.46071-4.4774-0.46606-6.4082-0.49508-1.0315-1.3753-2.2373-2.5152-2.3356-1.8276-0.15757-3.0761 1.9995-4.6142 2.9992-0.57624 3.304 0.51333-2.696 0.93231-3.7716 1.2303-4.4638-0.16395-9.0568-1.7186-13.247-1.0578-2.7949-3.1644-5.0766-5.8903-6.3108-2.3278-1.1684-4.6702-2.3381-6.9749-3.5289-3.6467-0.9366-7.463-0.75227-11.193-1.1608-0.5624-0.0424-1.1248-0.0849-1.6872-0.12733z" fill="#c5784b"/>
 <path d="m161.44 102.52c2.4673-1.9663 4.6355-4.9238 8.1095-4.9014 2.1417-0.36565 4.2834-0.73131 6.4251-1.097 3.5558 0.70606 4.1541 6.6844 0.30709 7.3733-1.9921 0.11405-3.7235-2.4666-2.3835-4.1434-4.144 1.6893-2.6597 7.7529 1.5592 8.0509 3.6514 1.6379 8.324-0.44506 8.9707-4.4822-0.36359-2.8868-0.30984-8.057 4.0198-5.6275 3.5622 1.283 7.1474 3.0364 9.2795 6.3109 3.6931 5.0811 5.608 11.705 4.4249 17.938-0.6724 3.1184-4.8731 5.2164-3.1777 8.8008 2.244 2.055 2.8609 5.2741 0.15246 7.4023-3.1089 2.1769-0.27286 6.8958 2.9067 5.079-3.2032-1.1675-2.7442-4.2255 0.25183-5.4558 4.1766-2.1937 0.64512-6.3631-0.15281-9.4144-0.30579-3.9459 4.248-6.1477 7.6353-6.3422 2.709-0.39357 3.7808-3.5645 4.1572-5.9466 0.68335-3.6043 0.93132-7.3284-0.11959-10.897-1.4222-5.7336-3.9088-11.443-8.6202-15.239-4.964-4.3316-11.747-6.725-18.326-5.5407-5.1019 0.85412-10.2 1.8182-15.241 2.9553-3.7539 1.7348-7.0247 4.3952-10.548 6.5607-1.7768 1.6973-5.0349 2.1812-5.9538 4.514-0.66091 1.9827-2.3301 3.8873-1.9827 5.9482 0.41925 2.4875 3.0761 3.999 4.6142 5.9984"/>
 <path d="m154.74 215.97v7.5042l0.4894 7.9936-0.97881 4.7309 2.447-0.48941 4.5678 1.142 2.447 2.6102-5.7097-21.044z" fill="#e1892b"/>
 <path d="m105.31 300.5s-2.7478 1.2576-3.9142 2.1938c-0.99763 0.80073-1.467 2.1916-2.5562 2.8624-0.73412 0.45215-2.1303 0.61079-2.4982 0.67049-0.62118 0.82937-1.6927 0.97969-2 0.375-1.0692-2.1039 3.9438-3.778 5.1561-4.8517l6.25-2.875 2.5 0.125-1.5 1.8125z" fill="#a65c34"/>
 <path d="m117.62 293.38-7 1.625s-5.182 0.74915-7.5 1.875c-1.8967 0.92124-5 3.875-5 3.875l-3.75 3.375-1 1.125s0.20827 0.37508 0.375 0.5c0.2849 0.21347 0.64406 0.38141 1 0.375 0.54158-0.01 1.0361-0.34529 1.5-0.625 1.0645-0.64188 2.875-2.375 2.875-2.375l3.8125-2.1875c7.6634-3.4934-0.26046 0.63581-0.0754 1.8213 0.17573 1.1254 4.249-0.8161 3.3878-0.44632l2.5-0.4375s4.0829-0.32136 6.125-0.25c0.56562 0.0198 1.1245 0.12942 1.6875 0.1875 0.87432 0.0902 1.7464 0.27435 2.625 0.25 0.69508-0.0193 1.4076-0.0789 2.0625-0.3125 1.2317-0.43938 3.375-2 3.375-2l7-5.25 9.375-7.875 12.375-10.25 10.952-25.79-2.1213-4.5962-5.8336-2.8284-3.182 1.591-0.76777 1.9534-4.7123 7.239-5.6568 9.8995-4.4194 9.5459-3.0052 6.364s-2.0787 4.0878-3.5355 5.8336c-1.7651 2.1153-6.1872 5.4801-6.1872 5.4801l-4.0659 1.4142z" fill="#cd825a"/>
 <path d="m151.31 236.53c0.68991-0.68577 1.6587-1.1027 2.6102-1.3051 1.7536-0.37294 3.5964 0.0212 5.3732 0.23953l3.4362 1.7181c0.59817 3.4802 1.1963 6.9604 1.7945 10.441-0.59816 0.70692-1.2276 0.95835-1.7945 2.1208-1.6055-2.2191-3.1801-3.6165-5.3835-4.0784-1.4092-0.29539-2.937 0.31603-4.2006 1.0061-0.67791 0.3702-1.2916 0.95153-1.6723 1.6041-0.54379-0.27189-1.2197-0.36828-1.6314-0.81568-0.59485-0.64648-1.0153-1.5693-0.97881-2.447 0.0253-0.60745 0.35638-1.233 0.81567-1.6314 0.51963-0.45068 1.3051-0.43503 1.9576-0.65254-0.46167-1.2392-1.197-3.2776-0.9658-4.9391 0.0649-0.46652 0.30547-0.92799 0.63953-1.26z" fill="#ffad4a"/>
 <path d="m172.75 164.57s-9.6663 2.7268-14.539 3.936c-2.3721 0.58861-5.1512 0.2113-7.152 1.615-1.8686 1.311-2.7935 3.6691-3.6913 5.7677-1.2766 2.9838-2.3164 6.2136-2.3071 9.459 0.0137 4.7562 1.7023 9.4233 3.4606 13.843 0.52192 1.3117 2.0764 3.6913 2.0764 3.6913s-2.0636 3.2477-2.0764 5.0756c-0.0162 2.3134 1.202 4.5709 2.5378 6.4598 0.88136 1.2463 2.4621 1.8446 3.4606 2.9992 1.4931 1.7266 3.3273 3.5143 3.6913 5.7677 0.71963 4.4542 1.4422 7.0261 2.3071 10.505 0.87539 3.5217 2.063 6.9617 2.9152 10.489 0.31665 1.3105 0.81568 3.9616 0.81568 3.9616s5.4232 3.4383 8.4966 4.1132c4.0568 0.89085 8.308-0.0678 12.458-0.23071 3.8491-0.15105 7.9956 0.82717 11.535-0.69213 1.45-0.62235 3.4606-3.2299 3.4606-3.2299s0.59229-7.0981 1.8457-10.382c1.0959-2.8712 3.1979-5.2495 4.8449-7.8441 2.2634-3.5656 6.9213-10.613 6.9213-10.613s1.8246 3.792 2.5378 5.7677c1.3306 3.6862 2.3066 7.496 3.2299 11.305 0.46195 1.9054 1.1535 5.7677 1.1535 5.7677s3.8988-4.0166 6.4598-4.8449c2.7078-0.87573 8.5362 0.15289 8.5362 0.15289s-1.3667-21.436-3.2299-31.991c-1.6828-9.5329-3.9181-19.022-7.152-28.146-0.73568-2.0756-1.1323-4.5245-2.7685-5.9984-2.8369-2.5554-7.2767-2.3285-10.843-3.6913-3.1222-1.193-6.4578-2.0524-9.2283-3.922-2.0735-1.3992-5.3063-5.3063-5.3063-5.3063l0.92283 8.5362-8.7669 22.379-21.456 3.922z" fill="#ea8e30"/>
 <path d="m170.67 186.27s5.381 2.6657 8.3055 2.9992c3.8478 0.43882 11.535-1.3842 11.535-1.3842l-15.457 21.456z" fill="#e6b66b"/>
 <path d="m176.38 160.2c0.65494 2.4982-1.9196 3.837-2.603 5.8633-1.6245 4.8171-3.3885 9.7578-3.5169 14.84-0.13684 5.4144 1.6964 10.709 2.9436 15.98 0.57164 2.4157 1.8802 4.6773 2.0764 7.152 0.098 1.2361-0.30762 2.4609-0.46142 3.6913-1.8893-2.4004-4.0971-4.5353-6.509-6.3992-1.7684-1.2281-4.3237-0.13261-5.9831 0.93385-1.3023 0.94446-2.9738 1.6398-3.634 3.2238-0.36268-4.782 1.0672-9.8512 3.5476-14.14 2.0218-4.0296 3.3932-7.19 4.289-11.645 1.1983-4.6818 3.5547-9.8428 4.7268-14.531 1.9221-2.5238 4.9578-2.3537 5.1241-4.9688z" fill="#ffc051"/>
 <path d="m195.9 156.74c0.68701 1.8986 4.1349 3.2766 4.029 5.385-0.12629 2.5154-0.89323 5.2173-1.3698 7.8206-0.58186 3.1783-1.3887 6.3188-1.8186 9.5212-1.3086 9.747-0.34761 21.023-2.304 29.413-0.12221 0.52413-0.6619 1.9656-1.5039 0.58746-1.544-1.6515-3.2833-3.1416-5.2995-4.1048-2.1642-1.034-4.6437-2.0934-7.0022-1.6569-1.9366 0.35848-3.2546 2.219-4.8818 3.3285 3.1636-4.5789 6.6027-8.9761 9.5649-13.689 2.9327-4.6661 5.8977-9.3608 8.1055-14.41 1.3636-3.1188 2.6936-6.3434 3.1342-9.7186 0.53906-4.1295-0.76366-8.3116-0.65373-12.476z" fill="#ffc051"/>
 <path d="m225.25 249.75s-0.0393 7.5755 0.75 11.25c0.95251 4.4342 2.6385 8.7361 4.75 12.75 2.7016 5.1357 7.0923 9.2282 10 14.25 2.1669 3.7424 3.6162 7.8574 5.5 11.75 1.1364 2.3482 3.5 7 3.5 7s-1.3625 5.8874-0.75 8.75c0.53856 2.5169 3.75 6.75 3.75 6.75 1.1271 1.0727 3.4174 8.5301 4.625 6.25 0.68102-1.4807 0.375-4.875 0.375-4.875s-1.1887-2.8596-1.25-4.375c-0.0344-0.84914 0.5-2.5 0.5-2.5s5.9237-0.4753 8.75 0.25c3.5378 0.9079 9.75 5 9.75 5l4 4.5s2.91 6.2478 4.875 5c1.2021-0.76334-0.7479-1.614-1.5-4 0 0 2.1697 1.3646 2.75 0.625 0.57514-0.73299-1.25-2.5-1.25-2.5l-4.625-3.875-3.5-5.5-0.125-1.625s2.6142 1.015 3.875 1.625c1.2423 0.60104 2.5596 2.8772 3.625 2 0.94605-0.77893-0.32707-2.5699-1.125-3.5-1.274-1.485-5.25-2.625-5.25-2.625l-4.5-1.125-7-3.25s-7.0929-4.7263-9.25-8.25c-5.667-9.2573-5.1572-21.096-8.25-31.5-1.4267-4.7994-2.3573-9.8518-4.75-14.25-1.785-3.281-7-8.75-7-8.75l-9.75 0.25z" fill="#cd825a"/>
 <path d="m220.04 244.18c-0.23406-1.095 0.30912-2.2934 0.92283-3.2299 0.92826-1.4166 2.4038-2.4794 3.922-3.2299 2.1238-1.0498 4.5668-1.352 6.9212-1.615 1.3618-0.15208 2.8273-0.45203 4.1108 0.028 1.3008 0.48649 2.5934 1.4456 3.1624 2.7125 0.61365 1.3664-0.0792 4.493-0.0792 4.493l2.4958 1.3027s1.0757 1.4714 1.0044 2.3071c-0.0505 0.59249-0.57099 1.0587-0.97882 1.4914-0.3196 0.33913-1.1212 0.83497-1.1212 0.83497s-2.0306-1.1752-3.1642-1.3336c-2.9567-0.41302-6.2171-0.24534-8.8905 1.0836-0.9248 0.45972-1.6589 1.32-2.1556 2.2255-0.58363 1.0642-0.84367 3.5422-0.84367 3.5422s-2.0756 0.38258-2.9992 0c-0.50239-0.2081-0.94544-0.65115-1.1535-1.1535-0.41201-0.99469-0.20543-2.1731 0-3.2299 0.12661-0.65135 0.7457-1.8457 0.7457-1.8457l0.20272-1.8852s-1.8745-1.434-2.102-2.4982z" fill="#ffad4a"/>
 <g transform="translate(111.1 18.723)">
  <path d="m58.694 500.79 3.3815 16.183c0.95743 7.9483 1.2634 11.035 0.96615 15.942-0.37056 0.95542-2.1738 2.1738-2.1738 2.1738l-7.0046 8.4538-5.3138 3.8646-1.2077 2.4154 8.9369 1.9323 14.009-3.3815 8.6954-8.2123 2.1738-2.6569s-4.1508-5.5038-5.3138-8.6954c-0.92009-2.5248-1.2077-7.9708-1.2077-7.9708l-0.48308-12.56-0.48308-11.352z" fill="#c5784b"/>
  <path d="m50.723 545.71s-1.6919 2.2869-1.2077 3.3815c0.42343 0.95719 1.8585 1.0896 2.8985 1.2077 3.814 0.4332 7.767-0.56121 11.352-1.9323 4.7988-1.8351 8.8363-5.2628 13.043-8.2123 1.5033-1.054 2.571-3.8442 4.3477-3.3815 2.1996 0.57281 2.5413 4.01 2.6569 6.28 0.05568 1.0937-0.25831 2.3044-0.96615 3.14-1.6292 1.9232-4.3899 2.5325-6.7631 3.3815-3.4206 1.2237-7.1425 1.39-10.628 2.4154-1.8081 0.53195-3.7784 0.83931-5.3138 1.9323-1.3522 0.96255-1.7832 2.9085-3.14 3.8646-1.1865 0.83611-2.6755 1.2042-4.1062 1.4492-3.2536 0.55732-6.6447 0.52876-9.9031 0-1.7592-0.28548-4.0302-0.24494-5.0723-1.6908-0.56492-0.78379-0.48258-2.0615 0-2.8985 0.88289-1.5313 2.7631-1.9488 4.5892-2.6569 3.1619-1.3705 8.2123-6.28 8.2123-6.28z" fill="#001602"/>
  <path d="m96.374 498.85s2.3758 14.062 3.2608 21.135c0.26108 2.0867 0.26821 4.204 0.60385 6.28 0.23067 1.4268 0.56944 2.8371 0.96616 4.2269 1.0868 3.8072 3.8646 11.232 3.8646 11.232l5.7969 8.9369 12.318 3.14 1.9323-11.352s-10.299-9.3003-13.043-15.458c-2.1505-4.8258-2.1738-15.7-2.1738-15.7l0.48307-13.043z" fill="#c5784b"/>
  <path d="m101.69 532.19c1.6908 3.3815 4.2377 9.1592 7.2462 13.164 1.2994 1.7297 2.6691 3.5925 4.5892 4.5892 1.6682 0.86595 3.7533 1.5002 5.5554 0.96616 1.4748-0.43704 2.8632-1.6918 3.3815-3.14 1.1089-3.0982-1.8921-7.7695-1.3285-9.7823 1.0809 1.2221 4.686 4.6612 5.9924 7.6152 0.53543 1.2107 0.58316 2.5951 0.6565 3.9169 0.1334 2.404 0.25421 4.8946-0.39853 7.2122-0.34724 1.2329-1.0262 2.3793-1.8215 3.3834-0.86735 1.0951-1.7684 2.4991-3.1371 2.7788-3.3965 0.69409-7.0196-1.3106-9.8664-3.2888-1.9135-1.3297-3.4563-3.92-4.3845-5.4445-2.2912-5.564-3.5087-10.676-5.0416-14.842-0.21835-1.1138-1.1562-6.0307-1.4431-7.128z"/>
 </g>
 <path d="m132.28 381.27c-2.9807 18.903-5.1326 38-6.6765 57.008-3.5933 11.376-4.7082 23.995-10.359 34.478-4.1137 5.485-8.2274 10.97-12.341 16.455 6.153 7.0306 12.636 14.059 21.706 17.187 0.29492 10.204 14.608 15.972 25.81 16.151 17.131 3.4821 34.074-2.6323 51.232-2.8516 17.115-1.7505 34.348 1.1291 51.403-0.63261 6.4716 0.51876 10.106-3.553 7.6784-9.8423 11.802-1.1325 31.454-10.533 28.234-23.658-12.481-35.376-25.473-70.618-37.145-106.25-7.3703-28.021-11.524-57.215-22.808-83.916-7.2411-17.135-18.193-32.475-28.418-48.03-22.772 44.634-45.545 89.268-68.317 133.9z" fill="#ea8e30"/>
 <path d="m164.04 246.34c-3.6412 8.9562-5.8149 16.677-9.1785 24.791-4.1482 8.6305-8.9046 17.057-10.731 26.563-4.0984 14.486-8.468 28.954-10.036 43.988-2.0141 13.112-4.0998 26.216-6.6047 39.244 5.2728 7.81 10.257 15.815 15.71 23.503 9.0143 6.6458 16.689 15.512 27.303 19.653 3.5387 1.6692 7.0774 3.3384 10.616 5.0076 14.837-11.418 30.434-21.891 44.239-34.593 4.952-4.2957 9.904-8.5914 14.856-12.887-6.343-23.65-12.89-47.263-17.5-71.33-2.3996-10.203-3.4952-20.889-8.3836-30.301-4.1248-9.3906-8.2497-18.781-12.375-28.172 2.9014 5.7154 13.964 14.324 11.848 2.3014 5.8713-5.9943 1.4274-14.07-6.7022-11.115-6.3508 3.442-11.838 8.8859-19.66 8.5145-7.0649-0.76107-20.193 1.2516-23.402-5.1662z" fill="#fbe3ff"/>
</svg>
